<?xml version="1.0" standalone="no"?>
<!DOCTYPE svg PUBLIC "-//W3C//DTD SVG 20010904//EN"
 "http://www.w3.org/TR/2001/REC-SVG-20010904/DTD/svg10.dtd">
<svg version="1.0" xmlns="http://www.w3.org/2000/svg"
 width="1024.000000pt" height="1024.000000pt" viewBox="0 0 1024.000000 1024.000000"
 preserveAspectRatio="xMidYMid meet">
<metadata>
Created by potrace 1.14, written by Peter Selinger 2001-2017
</metadata>
<g transform="translate(0.000000,1024.000000) scale(0.100000,-0.100000)"
fill="#000000" stroke="none">
<path d="M4355 8695 c-7 -5 -38 -77 -70 -160 -31 -82 -63 -163 -70 -180 -8
-16 -29 -70 -48 -120 -19 -49 -60 -153 -90 -230 -30 -77 -87 -223 -127 -325
-39 -102 -75 -194 -80 -205 -5 -11 -28 -67 -50 -125 -22 -58 -45 -114 -49
-125 -5 -11 -32 -81 -61 -155 -29 -74 -56 -144 -61 -155 -4 -11 -22 -56 -39
-100 -17 -44 -35 -89 -40 -100 -5 -11 -20 -50 -34 -86 -14 -36 -50 -130 -81
-210 -30 -79 -60 -153 -65 -164 -5 -11 -26 -63 -45 -115 -20 -52 -43 -109 -51
-127 -8 -17 -14 -34 -14 -38 0 -4 -6 -21 -14 -38 -8 -18 -35 -84 -59 -147 -82
-208 -154 -392 -231 -590 -42 -107 -81 -204 -86 -215 -5 -11 -57 -144 -116
-295 -207 -532 -315 -805 -324 -825 -5 -11 -46 -114 -90 -230 -111 -285 -239
-613 -255 -650 -7 -16 -56 -142 -110 -280 -53 -137 -101 -259 -105 -270 -5
-11 -55 -137 -110 -280 -56 -143 -106 -269 -111 -280 -28 -63 -128 -329 -125
-334 6 -9 1669 -7 1682 2 7 4 14 19 17 34 3 16 25 84 50 153 25 69 104 289
175 490 72 201 140 392 152 425 11 33 33 94 47 135 27 78 139 394 174 490 l20
56 1259 0 c693 0 1260 0 1260 -1 0 0 18 -52 41 -115 23 -63 67 -189 99 -280
60 -172 382 -1081 472 -1330 l23 -65 837 0 c460 1 840 4 844 8 4 3 0 21 -8 39
-9 18 -39 94 -67 168 -29 74 -56 144 -61 155 -5 11 -55 137 -110 280 -56 143
-106 269 -111 280 -4 11 -18 45 -29 75 -11 30 -25 64 -30 75 -5 11 -30 74 -55
140 -70 179 -371 945 -385 980 -24 59 -29 71 -65 165 -20 52 -56 145 -80 205
-80 202 -157 398 -221 565 -36 91 -69 174 -74 185 -5 11 -39 97 -75 190 -37
94 -81 208 -100 255 -18 47 -54 137 -78 200 -25 63 -79 203 -121 310 -42 107
-81 204 -86 215 -15 34 -120 304 -120 310 0 3 -8 25 -19 48 -10 23 -62 155
-115 292 -54 138 -102 259 -106 270 -5 11 -19 45 -30 75 -11 30 -25 64 -30 75
-5 11 -34 85 -65 165 -149 383 -528 1349 -541 1377 -8 17 -14 36 -14 41 0 6
-6 14 -12 19 -20 12 -1519 10 -1533 -2z m1044 -2469 c133 -396 242 -721 242
-723 1 -1 2 -6 3 -10 1 -5 62 -190 135 -413 73 -223 148 -451 166 -507 l34
-103 -57 0 c-31 0 -416 -1 -855 -2 -576 -2 -797 0 -797 8 0 6 25 83 56 170 30
87 73 209 94 269 57 164 160 458 230 655 34 96 81 231 105 300 24 69 69 197
100 285 31 88 74 210 95 270 214 613 191 551 200 534 5 -8 116 -338 249 -733z"/>
</g>
</svg>
